<svg xmlns="http://www.w3.org/2000/svg" width="450" height="244" viewBox="0 0 450 244" role="img" aria-label="octocat: at least 42 AI-assisted commits, at least 17 merged PRs, 3 releases" font-family="'Segoe UI', Ubuntu, Helvetica, Arial, sans-serif">
  <style>
    .fade { opacity: 0; animation: fadeUp 0.5s ease-out forwards; }
    @keyframes fadeUp { from { opacity: 0; transform: translateY(4px); } to { opacity: 1; transform: translateY(0); } }
    @media (prefers-reduced-motion: reduce) { .fade { opacity: 1; animation: none; } }
  </style>
  <rect x="0.5" y="0.5" width="449" height="243" rx="8" fill="#0d1117" stroke="#30363d"/>
  <g class="fade" transform="translate(24, 21)">
    <path d="M7 0 L8.6 5.4 L14 7 L8.6 8.6 L7 14 L5.4 8.6 L0 7 L5.4 5.4 Z" fill="#58a6ff"/>
  </g>
  <text class="fade" x="46" y="33" font-size="14" font-weight="600" fill="#58a6ff">octocat · directed AI to ship</text>
  <text class="fade" style="animation-delay:100ms" x="426" y="33" text-anchor="end" font-size="10" fill="#8b949e">in 4 public repos</text>
    <g class="fade" style="animation-delay:150ms">
      <rect x="24" y="60" width="118" height="58" rx="8" fill="#58a6ff" fill-opacity="0.06" stroke="#58a6ff" stroke-opacity="0.15"/>
      <text x="83" y="87" text-anchor="middle" font-size="20" font-weight="700" fill="#c9d1d9">≥42</text>
      <text x="83" y="104" text-anchor="middle" font-size="9.5" fill="#8b949e">AI-assisted commits</text>
    </g>
    <g class="fade" style="animation-delay:270ms">
      <rect x="166" y="60" width="118" height="58" rx="8" fill="#58a6ff" fill-opacity="0.1" stroke="#58a6ff" stroke-opacity="0.22"/>
      <text x="225" y="87" text-anchor="middle" font-size="20" font-weight="700" fill="#c9d1d9">≥17</text>
      <text x="225" y="104" text-anchor="middle" font-size="9.5" fill="#8b949e">merged PRs</text>
    </g>
    <g class="fade" style="animation-delay:390ms">
      <rect x="308" y="60" width="118" height="58" rx="8" fill="#58a6ff" fill-opacity="0.15" stroke="#58a6ff" stroke-opacity="0.3"/>
      <text x="367" y="87" text-anchor="middle" font-size="20" font-weight="700" fill="#c9d1d9">3</text>
      <text x="367" y="104" text-anchor="middle" font-size="9.5" fill="#8b949e">releases</text>
    </g>
    <path class="fade" style="animation-delay:330ms" d="M151.5 84.5 l5 4.5 -5 4.5" fill="none" stroke="#8b949e" stroke-width="1.6" stroke-linecap="round" stroke-linejoin="round"/>
    <path class="fade" style="animation-delay:450ms" d="M293.5 84.5 l5 4.5 -5 4.5" fill="none" stroke="#8b949e" stroke-width="1.6" stroke-linecap="round" stroke-linejoin="round"/>
    <g class="fade" style="animation-delay:450ms">
      <circle cx="27" cy="147.5" r="2.5" fill="#58a6ff"/>
      <text x="36" y="151" font-size="11" fill="#8b949e"><tspan fill="#58a6ff" font-weight="600">spark-app</tspan><tspan fill="#c9d1d9"> — shipped v1.2.0 · ≥20 AI-assisted commits</tspan></text>
      <rect x="362" y="146" width="64" height="4" rx="2" fill="#58a6ff" fill-opacity="0.12"/>
      <rect x="362" y="146" width="64" height="4" rx="2" fill="#58a6ff" fill-opacity="0.55"/>
    </g>
    <g class="fade" style="animation-delay:550ms">
      <circle cx="27" cy="167.5" r="2.5" fill="#58a6ff"/>
      <text x="36" y="171" font-size="11" fill="#8b949e"><tspan fill="#58a6ff" font-weight="600">tiny-lib</tspan><tspan fill="#c9d1d9"> · ≥9 AI-assisted commits</tspan></text>
      <rect x="362" y="166" width="64" height="4" rx="2" fill="#58a6ff" fill-opacity="0.12"/>
      <rect x="362" y="166" width="29" height="4" rx="2" fill="#58a6ff" fill-opacity="0.55"/>
    </g>
    <g class="fade" style="animation-delay:650ms">
      <circle cx="27" cy="187.5" r="2.5" fill="#58a6ff"/>
      <text x="36" y="191" font-size="11" fill="#8b949e"><tspan fill="#58a6ff" font-weight="600">cli-tools</tspan><tspan fill="#c9d1d9"> — shipped v0.3.1 · ≥6 AI-assisted commits</tspan></text>
      <rect x="362" y="186" width="64" height="4" rx="2" fill="#58a6ff" fill-opacity="0.12"/>
      <rect x="362" y="186" width="19" height="4" rx="2" fill="#58a6ff" fill-opacity="0.55"/>
    </g>
  <a href="https://github.com/JinVibe/ai-usage-cards" target="_blank">
    <text x="426" y="230" text-anchor="end" font-size="9" fill="#8b949e" fill-opacity="0.8">made with ai-usage-cards</text>
  </a>
</svg>